<svg width="41" height="40" viewBox="0 0 41 40" fill="none" xmlns="http://www.w3.org/2000/svg">
<path d="M20.75 10C19.5139 10 18.3055 10.3666 17.2777 11.0533C16.2499 11.7401 15.4488 12.7162 14.9758 13.8582C14.5027 15.0003 14.3789 16.2569 14.6201 17.4693C14.8613 18.6817 15.4565 19.7953 16.3306 20.6694C17.2047 21.5435 18.3183 22.1388 19.5307 22.3799C20.7431 22.6211 21.9997 22.4973 23.1418 22.0242C24.2838 21.5512 25.2599 20.7501 25.9467 19.7223C26.6334 18.6945 27 17.4861 27 16.25C27 14.5924 26.3415 13.0027 25.1694 11.8306C23.9973 10.6585 22.4076 10 20.75 10Z" fill="black"/>
<path d="M20.75 2.5C17.2888 2.5 13.9054 3.52636 11.0275 5.44928C8.14967 7.37221 5.90665 10.1053 4.58212 13.303C3.25758 16.5007 2.91102 20.0194 3.58627 23.4141C4.26151 26.8087 5.92822 29.9269 8.37564 32.3744C10.8231 34.8218 13.9413 36.4885 17.3359 37.1637C20.7306 37.839 24.2493 37.4924 27.447 36.1679C30.6447 34.8434 33.3778 32.6003 35.3007 29.7225C37.2237 26.8446 38.25 23.4612 38.25 20C38.2447 15.3603 36.3993 10.9122 33.1185 7.63148C29.8378 4.35074 25.3897 2.50529 20.75 2.5V2.5ZM30.74 31.1575C30.7151 29.5179 30.0471 27.9537 28.8799 26.802C27.7127 25.6502 26.1398 25.0031 24.5 25H17C15.3602 25.0031 13.7873 25.6502 12.6201 26.802C11.4529 27.9537 10.7849 29.5179 10.76 31.1575C8.49321 29.1334 6.89467 26.4686 6.17605 23.5158C5.45743 20.5631 5.65263 17.4617 6.73581 14.6223C7.81898 11.783 9.73903 9.33958 12.2417 7.61571C14.7444 5.89183 17.7117 4.96878 20.7506 4.96878C23.7896 4.96878 26.7569 5.89183 29.2595 7.61571C31.7622 9.33958 33.6823 11.783 34.7655 14.6223C35.8486 17.4617 36.0438 20.5631 35.3252 23.5158C34.6066 26.4686 33.0081 29.1334 30.7413 31.1575H30.74Z" fill="black"/>
</svg>
