<svg width="40" height="40" viewBox="0 0 40 40" fill="none" xmlns="http://www.w3.org/2000/svg">
<path d="M24.1663 7.96325V3.33325H29.1663V11.6666M15.833 7.96325V3.33325H10.833V11.6666L15.833 7.96325Z" stroke="black" stroke-width="3.33333" stroke-linecap="round" stroke-linejoin="round"/>
<path d="M14.1665 19.1666H25.8332M9.1665 16.6666C9.1665 12.0641 12.8973 8.33325 17.4998 8.33325H22.4998C27.1023 8.33325 30.8332 12.0641 30.8332 16.6666V33.3333C30.8332 34.2173 30.482 35.0652 29.8569 35.6903C29.2317 36.3154 28.3839 36.6666 27.4998 36.6666H12.4998C11.6158 36.6666 10.7679 36.3154 10.1428 35.6903C9.51769 35.0652 9.1665 34.2173 9.1665 33.3333V16.6666ZM9.1665 24.1666H4.1665V32.4999H9.1665V24.1666ZM30.8332 24.1666H35.8332V32.4999H30.8332V24.1666ZM23.3332 19.1666V22.4999V19.1666Z" stroke="black" stroke-width="3.33333" stroke-linecap="round" stroke-linejoin="round"/>
</svg>
