<svg width="40" height="40" viewBox="0 0 40 40" fill="none" xmlns="http://www.w3.org/2000/svg">
<g clip-path="url(#clip0_1287_3559)">
<path d="M38.4333 25.5556L33.9 20L38.3444 14.5556C38.5875 14.2577 38.7407 13.8967 38.786 13.515C38.8312 13.1332 38.7667 12.7464 38.6 12.4C38.4311 12.0117 38.1511 11.6821 37.7952 11.4527C37.4392 11.2234 37.0234 11.1045 36.6 11.1111H2.15556C1.87685 11.1067 1.60001 11.1572 1.34084 11.2598C1.08167 11.3624 0.845248 11.5151 0.645079 11.709C0.444911 11.903 0.284915 12.1345 0.174231 12.3904C0.0635474 12.6462 0.00434317 12.9213 0 13.2L0 26.8111C0.0116786 27.372 0.245001 27.9055 0.648944 28.2949C1.05289 28.6842 1.59458 28.8978 2.15556 28.8889H36.7222C37.1314 28.8957 37.5341 28.7853 37.8825 28.5707C38.231 28.3561 38.5108 28.0463 38.6889 27.6778C38.8488 27.3355 38.9096 26.9552 38.8644 26.5801C38.8193 26.205 38.6699 25.8501 38.4333 25.5556V25.5556ZM2.22222 26.6667V13.3333H36.4222L31.0444 19.9222L36.5 26.6667H2.22222Z" fill="black"/>
<path d="M10.4334 21.5001L6.81122 16.6667H5.55566V23.5334H6.81122V18.7112L10.4334 23.5334H11.6779V16.6667H10.4334V21.5001Z" fill="black"/>
<path d="M13.5332 23.5334H18.711V22.4001H14.7888V20.6112H18.3332V19.4667H14.7888V17.8112H18.711V16.6667H13.5332V23.5334Z" fill="black"/>
<path d="M27.2443 21.589L25.622 16.6667H24.2665L22.6331 21.589L21.1665 16.6667H19.7998L21.9776 23.5334H23.2109L24.9443 18.4334L26.6665 23.5334H27.922L30.0887 16.6667H28.722L27.2443 21.589V21.589Z" fill="black"/>
</g>
<defs>
<clipPath id="clip0_1287_3559">
<rect width="40" height="40" fill="white"/>
</clipPath>
</defs>
</svg>
