<svg width="40" height="40" viewBox="0 0 40 40" fill="none" xmlns="http://www.w3.org/2000/svg">
<path d="M33.75 7.5C34.0815 7.5 34.3995 7.6317 34.6339 7.86612C34.8683 8.10054 35 8.41848 35 8.75V27.5H5V8.75C5 8.41848 5.1317 8.10054 5.36612 7.86612C5.60054 7.6317 5.91848 7.5 6.25 7.5H33.75ZM6.25 5C5.25544 5 4.30161 5.39509 3.59835 6.09835C2.89509 6.80161 2.5 7.75544 2.5 8.75V30H37.5V8.75C37.5 7.75544 37.1049 6.80161 36.4017 6.09835C35.6984 5.39509 34.7446 5 33.75 5H6.25ZM0 31.25H40C40 32.2446 39.6049 33.1984 38.9017 33.9017C38.1984 34.6049 37.2446 35 36.25 35H3.75C2.75544 35 1.80161 34.6049 1.09835 33.9017C0.395088 33.1984 0 32.2446 0 31.25H0Z" fill="black"/>
</svg>
