<svg width="40" height="40" viewBox="0 0 40 40" fill="none" xmlns="http://www.w3.org/2000/svg">
<g clip-path="url(#clip0_1285_3547)">
<path d="M32.7272 18.1208C31.7144 18.1208 30.752 18.3288 29.8776 18.7024L27.4168 14.4856L29.2712 11.3072C29.3921 11.0987 29.4256 10.8508 29.3643 10.6177C29.303 10.3846 29.1519 10.1852 28.944 10.0632C28.7536 9.9528 28.5416 9.7528 28.3408 9.7856L28.1832 9.6H24.5456C24.044 9.6 23.6368 10.2984 23.6368 10.8C23.6368 11.3024 24.044 12 24.5456 12H26.9032L25.8416 13.6H15.2192L17.3408 9.6H18.1816C18.6832 9.6 19.0904 9.3024 19.0904 8.8C19.0904 8.2976 18.6832 8 18.1816 8H13.6352C13.1344 8 12.7264 8.2976 12.7264 8.8C12.7264 9.3024 13.1336 9.6 13.6352 9.6H15.2344L10.1232 18.532C9.248 18.1584 8.284 18.036 7.272 18.036C3.256 18.036 0 21.3352 0 25.3512C0 29.368 3.256 32.6448 7.2728 32.6448C11.2896 32.6448 14.5456 29.3992 14.5456 25.3824C14.5456 23.0304 13.424 20.9496 11.6896 19.6192L13.636 16.2864L19.2152 25.8512L19.2368 25.8816L19.2608 25.9176L19.2792 25.9448L19.3512 26.028L19.36 26.0384L19.3848 26.0608L19.4104 26.0816L19.4808 26.1376L19.5104 26.1568L19.5336 26.172L19.5432 26.1776L19.5464 26.1808L19.6232 26.2184L19.632 26.2224L19.6504 26.232L19.6568 26.2336L19.7152 26.2544L19.7696 26.272L19.7808 26.2752L19.8008 26.2784L19.836 26.2856L19.9992 26.3024L20 26.352L20.0032 26.3992H25.516C25.9656 29.5992 29.0184 32.7152 32.7264 32.7152C36.7432 32.7152 39.9992 29.4344 39.9992 25.4176C40 21.4016 36.744 18.1208 32.7272 18.1208V18.1208ZM12.7272 25.3936C12.7272 26.8402 12.1525 28.2275 11.1296 29.2504C10.1067 30.2733 8.7194 30.848 7.2728 30.848C5.8262 30.848 4.43886 30.2733 3.41596 29.2504C2.39306 28.2275 1.8184 26.8402 1.8184 25.3936C1.8184 24.6774 1.95949 23.9681 2.23361 23.3064C2.50773 22.6447 2.90951 22.0435 3.41601 21.537C3.9225 21.0306 4.5238 20.6289 5.18555 20.3549C5.84731 20.0809 6.55656 19.9399 7.2728 19.94C7.9504 19.94 8.5968 20.0688 9.1952 20.2952L6.4872 24.9368C6.40731 25.075 6.36513 25.2318 6.36489 25.3914C6.36465 25.5511 6.40635 25.708 6.48583 25.8464C6.5653 25.9849 6.67976 26.1 6.81773 26.1803C6.95571 26.2606 7.11236 26.3033 7.272 26.304C7.5848 26.304 7.8888 26.1424 8.0584 25.8536L10.7672 21.2088C11.3809 21.7198 11.8746 22.3597 12.2133 23.0829C12.5521 23.8061 12.7275 24.595 12.7272 25.3936V25.3936ZM20 23.3952L15.2192 15.2H24.7816L20 23.3952ZM26.3632 16.4472L28.3104 19.8616C26.8048 21.0168 25.7648 22.4 25.5168 24.8H21.5824L26.3632 16.4472ZM29.2328 21.5232L31.1456 24.8H27.3552C27.5744 23.2 28.256 22.34 29.2328 21.5232V21.5232ZM32.7272 30.8984C30.0256 30.8984 27.7872 28.8 27.3544 26.4H32.7248L32.7288 26.3528L32.8912 26.3104L32.928 26.292L33.0792 26.2392L33.096 26.2264L33.1864 26.18L33.208 26.1632L33.2888 26.1048L33.3512 26.052L33.412 25.9856L33.4664 25.9176L33.512 25.844L33.5536 25.768L33.5848 25.6848L33.6096 25.6016L33.6232 25.5184L33.6336 25.42L33.636 25.392L33.632 25.3408L33.6208 25.2416L33.6024 25.1568L33.576 25.0736L33.5344 24.9832L33.5128 24.936L30.8048 20.2944C31.4188 20.0606 32.0702 19.9403 32.7272 19.9392C35.7408 19.9392 38.1824 22.4056 38.1824 25.4176C38.1832 28.4312 35.7408 30.8984 32.7272 30.8984V30.8984Z" fill="black"/>
</g>
<defs>
<clipPath id="clip0_1285_3547">
<rect width="40" height="40" fill="white"/>
</clipPath>
</defs>
</svg>
