<svg width="40" height="40" viewBox="0 0 40 40" fill="none" xmlns="http://www.w3.org/2000/svg">
<path d="M34.9998 28.3333H4.99984V8.33333H34.9998V28.3333ZM34.9998 5H4.99984C4.11578 5 3.26794 5.35119 2.64281 5.97631C2.01769 6.60143 1.6665 7.44928 1.6665 8.33333V28.3333C1.6665 29.2174 2.01769 30.0652 2.64281 30.6904C3.26794 31.3155 4.11578 31.6667 4.99984 31.6667H13.3332V35H26.6665V31.6667H34.9998C35.8839 31.6667 36.7317 31.3155 37.3569 30.6904C37.982 30.0652 38.3332 29.2174 38.3332 28.3333V8.33333C38.3332 7.44928 37.982 6.60143 37.3569 5.97631C36.7317 5.35119 35.8839 5 34.9998 5Z" fill="black"/>
</svg>
