<svg width="40" height="40" viewBox="0 0 40 40" fill="none" xmlns="http://www.w3.org/2000/svg">
<path d="M11.25 21.25H5C4.66848 21.25 4.35054 21.1183 4.11612 20.8839C3.8817 20.6495 3.75 20.3315 3.75 20C3.75 19.6685 3.8817 19.3505 4.11612 19.1161C4.35054 18.8817 4.66848 18.75 5 18.75H10.5781L12.7031 15.5625C12.8167 15.3884 12.9719 15.2454 13.1547 15.1464C13.3375 15.0474 13.5421 14.9955 13.75 14.9955C13.9579 14.9955 14.1625 15.0474 14.3453 15.1464C14.5281 15.2454 14.6833 15.3884 14.7969 15.5625L18.75 21.5L20.2031 19.3125C20.3162 19.1382 20.4714 18.9953 20.6544 18.897C20.8374 18.7986 21.0423 18.7481 21.25 18.75H25C25.3315 18.75 25.6495 18.8817 25.8839 19.1161C26.1183 19.3505 26.25 19.6685 26.25 20C26.25 20.3315 26.1183 20.6495 25.8839 20.8839C25.6495 21.1183 25.3315 21.25 25 21.25H21.9219L19.7969 24.4375C19.6833 24.6116 19.5281 24.7546 19.3453 24.8536C19.1625 24.9526 18.9579 25.0045 18.75 25.0045C18.5421 25.0045 18.3375 24.9526 18.1547 24.8536C17.9719 24.7546 17.8167 24.6116 17.7031 24.4375L13.75 18.5L12.2969 20.6875C12.1838 20.8618 12.0286 21.0047 11.8456 21.103C11.6626 21.2014 11.4577 21.2519 11.25 21.25V21.25ZM27.5 5C26.0446 5 24.6091 5.33886 23.3074 5.98975C22.0056 6.64063 20.8733 7.58566 20 8.75C18.8194 7.17588 17.1735 6.01312 15.2953 5.42644C13.4172 4.83975 11.402 4.85887 9.53536 5.48109C7.66869 6.10332 6.04511 7.2971 4.8946 8.89334C3.7441 10.4896 3.125 12.4074 3.125 14.375C3.125 14.6094 3.125 14.8438 3.14063 15.0625C3.16078 15.3955 3.31163 15.7071 3.56035 15.9295C3.80907 16.1519 4.13554 16.2671 4.46875 16.25C4.63301 16.2401 4.79369 16.1978 4.94158 16.1256C5.08946 16.0534 5.22163 15.9527 5.33051 15.8293C5.43939 15.7059 5.52283 15.5622 5.57605 15.4065C5.62927 15.2508 5.65121 15.0861 5.64062 14.9219C5.625 14.75 5.625 14.5625 5.625 14.375C5.62355 12.7857 6.1728 11.2449 7.1793 10.0149C8.18581 8.78489 9.58738 7.94158 11.1456 7.62847C12.7038 7.31536 14.3223 7.55178 15.7258 8.29752C17.1293 9.04325 18.2311 10.2522 18.8437 11.7188C18.9379 11.948 19.0981 12.1441 19.304 12.2821C19.5099 12.4201 19.7521 12.4938 20 12.4938C20.2479 12.4938 20.4901 12.4201 20.696 12.2821C20.9019 12.1441 21.0621 11.948 21.1562 11.7188C21.7689 10.2522 22.8707 9.04325 24.2742 8.29752C25.6777 7.55178 27.2962 7.31536 28.8544 7.62847C30.4126 7.94158 31.8142 8.78489 32.8207 10.0149C33.8272 11.2449 34.3764 12.7857 34.375 14.375C34.375 23 22.8125 30.5781 20 32.2969C18.3437 31.2969 13.6719 28.2656 10.1094 24.1719C10.0006 24.0477 9.86849 23.9462 9.72051 23.8732C9.57253 23.8001 9.41161 23.7569 9.24693 23.746C8.91434 23.724 8.58665 23.8351 8.33594 24.0547C8.08522 24.2743 7.93203 24.5846 7.91005 24.9171C7.88808 25.2497 7.99912 25.5774 8.21875 25.8281C12.9062 31.1719 19.125 34.6875 19.3906 34.8438C19.5774 34.9463 19.787 35.0001 20 35.0001C20.213 35.0001 20.4226 34.9463 20.6094 34.8438C23.4839 33.1633 26.1801 31.1948 28.6562 28.9687C34.1094 24.0625 36.875 19.1563 36.875 14.375C36.875 11.8886 35.8873 9.50403 34.1291 7.74587C32.371 5.98772 29.9864 5 27.5 5V5Z" fill="black"/>
</svg>
