<svg width="40" height="40" viewBox="0 0 40 40" fill="none" xmlns="http://www.w3.org/2000/svg">
<path d="M35 18.9082V11.875C34.9989 10.8808 34.6034 9.92762 33.9004 9.22461C33.1974 8.52159 32.2442 8.12614 31.25 8.125H8.75C7.75579 8.12614 6.80262 8.52159 6.09961 9.22461C5.39659 9.92762 5.00114 10.8808 5 11.875V18.9082C3.92739 19.1867 2.97743 19.8131 2.29886 20.6892C1.62028 21.5654 1.25141 22.6418 1.25 23.75V32.5C1.25074 33.1628 1.51438 33.7983 1.98306 34.2669C2.45173 34.7356 3.08719 34.9993 3.75 35H5V38.75H7.5V35H32.5V38.75H35V35H36.25C36.9128 34.9993 37.5483 34.7356 38.0169 34.2669C38.4856 33.7983 38.7493 33.1628 38.75 32.5V23.75C38.7486 22.6418 38.3797 21.5654 37.7011 20.6892C37.0226 19.8131 36.0726 19.1867 35 18.9082V18.9082ZM8.75 32.5H3.75V23.75C3.75 23.087 4.01339 22.4511 4.48223 21.9822C4.95107 21.5134 5.58696 21.25 6.25 21.25C6.91304 21.25 7.54893 21.5134 8.01777 21.9822C8.48661 22.4511 8.75 23.087 8.75 23.75V32.5ZM28.75 32.5H11.25V25H28.75V32.5ZM28.9082 22.5H11.0918C10.8667 21.6359 10.4152 20.8475 9.78383 20.2162C9.15246 19.5848 8.36407 19.1333 7.5 18.9082V11.875C7.50039 11.5436 7.63222 11.2259 7.86655 10.9916C8.10089 10.7572 8.4186 10.6254 8.75 10.625H31.25C31.5814 10.6254 31.8991 10.7572 32.1335 10.9916C32.3678 11.2259 32.4996 11.5436 32.5 11.875V18.9082C31.6359 19.1333 30.8475 19.5848 30.2162 20.2162C29.5848 20.8475 29.1333 21.6359 28.9082 22.5V22.5ZM36.25 32.5H31.25V23.75C31.25 23.087 31.5134 22.4511 31.9822 21.9822C32.4511 21.5134 33.087 21.25 33.75 21.25C34.413 21.25 35.0489 21.5134 35.5178 21.9822C35.9866 22.4511 36.25 23.087 36.25 23.75L36.2516 32.5H36.25Z" fill="black"/>
</svg>
