<svg width="40" height="40" viewBox="0 0 40 40" fill="none" xmlns="http://www.w3.org/2000/svg">
<path d="M31.6665 3.33325H8.33317C7.4127 3.33325 6.6665 4.07944 6.6665 4.99992V34.9999C6.6665 35.9204 7.4127 36.6666 8.33317 36.6666H31.6665C32.587 36.6666 33.3332 35.9204 33.3332 34.9999V4.99992C33.3332 4.07944 32.587 3.33325 31.6665 3.33325Z" stroke="black" stroke-width="3.33333"/>
<path d="M6.6665 9.99992C6.6665 10.4419 6.8421 10.8659 7.15466 11.1784C7.46722 11.491 7.89114 11.6666 8.33317 11.6666H31.6665C32.1085 11.6666 32.5325 11.491 32.845 11.1784C33.1576 10.8659 33.3332 10.4419 33.3332 9.99992V4.99992C33.3332 4.55789 33.1576 4.13397 32.845 3.82141C32.5325 3.50885 32.1085 3.33325 31.6665 3.33325H8.33317C7.89114 3.33325 7.46722 3.50885 7.15466 3.82141C6.8421 4.13397 6.6665 4.55789 6.6665 4.99992V9.99992Z" stroke="black" stroke-width="3.33333"/>
<path d="M11.6667 9.16659C12.5871 9.16659 13.3333 8.42039 13.3333 7.49992C13.3333 6.57944 12.5871 5.83325 11.6667 5.83325C10.7462 5.83325 10 6.57944 10 7.49992C10 8.42039 10.7462 9.16659 11.6667 9.16659Z" fill="black"/>
<path d="M16.6667 9.16659C17.5871 9.16659 18.3333 8.42039 18.3333 7.49992C18.3333 6.57944 17.5871 5.83325 16.6667 5.83325C15.7462 5.83325 15 6.57944 15 7.49992C15 8.42039 15.7462 9.16659 16.6667 9.16659Z" fill="black"/>
<path d="M19.9998 29.9999C23.2215 29.9999 25.8332 27.3882 25.8332 24.1666C25.8332 20.9449 23.2215 18.3333 19.9998 18.3333C16.7782 18.3333 14.1665 20.9449 14.1665 24.1666C14.1665 27.3882 16.7782 29.9999 19.9998 29.9999Z" stroke="black" stroke-width="3.33333"/>
</svg>
