<svg width="40" height="40" viewBox="0 0 40 40" fill="none" xmlns="http://www.w3.org/2000/svg">
<path d="M33.6 6.40003C33.1557 5.95563 32.6282 5.60311 32.0476 5.36259C31.467 5.12208 30.8447 4.99829 30.2163 4.99829C29.5879 4.99829 28.9656 5.12208 28.385 5.36259C27.8044 5.60311 27.2769 5.95563 26.8325 6.40003L8.34504 24.8875C7.89308 25.3398 7.55245 25.891 7.35004 26.4975L5.06504 33.355C4.99205 33.5751 4.98168 33.8111 5.03511 34.0367C5.08854 34.2623 5.20365 34.4686 5.36758 34.6325C5.53151 34.7964 5.7378 34.9115 5.9634 34.965C6.18899 35.0184 6.425 35.008 6.64504 34.935L13.5025 32.65C14.1091 32.4476 14.6602 32.107 15.1125 31.655L30 16.7675L30.6575 17.425C31.0087 17.7766 31.2059 18.2532 31.2059 18.75C31.2059 19.2469 31.0087 19.7235 30.6575 20.075L27.865 22.865C27.6303 23.0997 27.4985 23.4181 27.4985 23.75C27.4985 24.082 27.6303 24.4003 27.865 24.635C28.0998 24.8697 28.4181 25.0016 28.75 25.0016C29.082 25.0016 29.4003 24.8697 29.635 24.635L32.425 21.8425C33.2448 21.0221 33.7054 19.9098 33.7054 18.75C33.7054 17.5902 33.2448 16.4779 32.425 15.6575L31.7675 15L33.6 13.17C34.0448 12.7256 34.3977 12.198 34.6384 11.6171C34.8791 11.0363 35.003 10.4138 35.003 9.78503C35.003 9.1563 34.8791 8.53373 34.6384 7.95291C34.3977 7.37209 34.0448 6.84441 33.6 6.40003V6.40003ZM29.155 14.08C29.1289 14.1039 29.1039 14.1289 29.08 14.155L13.345 29.8875C13.1673 30.0648 12.9507 30.1983 12.7125 30.2775L8.22754 31.7725L9.72254 27.29C9.80152 27.051 9.93504 26.8336 10.1125 26.655L28.6 8.17003C28.8123 7.95778 29.0643 7.78942 29.3416 7.67455C29.6189 7.55968 29.9161 7.50056 30.2163 7.50056C30.5165 7.50056 30.8137 7.55968 31.091 7.67455C31.3683 7.78942 31.6203 7.95778 31.8325 8.17003C32.0448 8.38228 32.2132 8.63425 32.328 8.91157C32.4429 9.18889 32.502 9.48611 32.502 9.78628C32.502 10.0864 32.4429 10.3837 32.328 10.661C32.2132 10.9383 32.0448 11.1903 31.8325 11.4025L29.155 14.08V14.08Z" fill="black"/>
</svg>
