<svg width="40" height="40" viewBox="0 0 40 40" fill="none" xmlns="http://www.w3.org/2000/svg">
<path d="M12.4998 3.75C9.75608 3.75 7.75358 5.75625 6.60108 8.125C5.44983 10.4937 4.95108 13.35 4.99983 15.86C5.05858 18.775 6.32858 21.7188 6.32858 21.7188L6.67858 22.5H17.1873L17.4611 21.5625C17.4611 21.5625 18.4473 17.8863 18.7111 14.375C18.8136 12.9937 18.7698 10.5913 18.0073 8.32C17.6273 7.1825 17.0748 6.07 16.1711 5.195C15.2698 4.32125 13.9848 3.75 12.4998 3.75ZM27.4998 3.75C26.0148 3.75 24.7311 4.32125 23.8273 5.195C22.9248 6.07 22.3723 7.1825 21.9923 8.32C21.2298 10.5913 21.1861 12.9937 21.2886 14.375C21.5523 17.8863 22.5386 21.5625 22.5386 21.5625L22.8123 22.5H33.3198L33.6723 21.7188C33.6723 21.7188 34.9411 18.775 34.9998 15.8588C35.0498 13.35 34.5498 10.4937 33.3986 8.125C32.2461 5.75625 30.2436 3.75 27.4998 3.75ZM12.4998 6.25C13.3786 6.25 13.9111 6.50375 14.4136 6.9925C14.9173 7.48 15.3661 8.25625 15.6636 9.14C16.2548 10.9087 16.3273 13.1588 16.2498 14.2188C16.0448 16.9388 15.3948 19.2137 15.1948 20H8.39983C8.09733 19.145 7.53483 17.48 7.50108 15.82C7.45733 13.7013 7.94483 11.1187 8.86858 9.21875C9.78983 7.31875 10.9623 6.25 12.4998 6.25ZM27.4998 6.25C29.0373 6.25 30.2098 7.31875 31.1323 9.21875C32.0561 11.1187 32.5386 13.7013 32.4998 15.82C32.4661 17.48 31.9036 19.145 31.6011 20H24.8048C24.6048 19.2137 23.9548 16.9375 23.7498 14.2188C23.6711 13.1588 23.7448 10.9087 24.3361 9.14C24.6336 8.25625 25.0823 7.48 25.5861 6.9925C26.0873 6.505 26.6211 6.25 27.4998 6.25ZM6.24983 26.25V27.5C6.23483 29.2237 6.40108 31.235 7.26608 33.0075C8.12733 34.78 9.94608 36.25 12.4998 36.25C15.3273 36.25 17.4748 33.4813 17.4998 30C17.5048 29.1938 17.4711 28.2475 17.1873 27.1875L16.9523 26.25H6.24983ZM23.0473 26.25L22.8123 27.1875C22.5286 28.2475 22.4948 29.1938 22.4998 30C22.5248 33.4813 24.6723 36.25 27.4998 36.25C30.0536 36.25 31.8698 34.78 32.7348 33.0075C33.5973 31.235 33.7648 29.2237 33.7498 27.5V26.25H23.0473ZM8.94358 28.75H14.8811C14.9248 29.16 15.0036 29.58 14.9986 30C14.9786 32.5288 13.6611 33.75 12.4986 33.75C10.7748 33.75 10.0611 33.0813 9.49108 31.9138C9.08108 31.0788 9.03233 29.8775 8.94358 28.75ZM25.1161 28.75H31.0536C30.9661 29.8775 30.9161 31.0788 30.5061 31.9138C29.9373 33.0813 29.2248 33.75 27.4998 33.75C26.3373 33.75 25.0198 32.5288 24.9998 30C24.9948 29.58 25.0736 29.16 25.1173 28.75H25.1161Z" fill="black"/>
</svg>
