<svg width="40" height="40" viewBox="0 0 40 40" fill="none" xmlns="http://www.w3.org/2000/svg">
<path d="M17.7331 4.24656C17.9514 4.20901 18.1758 4.2303 18.3831 4.30823L30.4365 8.83323C30.6706 8.92096 30.8729 9.07705 31.0172 9.28123C31.1615 9.48541 31.241 9.72826 31.2455 9.97823C31.25 10.2282 31.1792 10.4738 31.0424 10.683C30.9055 10.8922 30.7089 11.0555 30.4781 11.1516L29.0448 11.7482C27.659 12.3257 26.4924 13.3283 25.7131 14.6116L24.8115 16.0982C24.9531 17.0182 25.3898 18.1816 26.0098 19.3816C26.5943 20.5201 27.2922 21.5967 28.0931 22.5949L32.0615 24.5816C32.8226 24.9617 33.4627 25.5464 33.9102 26.27C34.3576 26.9936 34.5947 27.8275 34.5948 28.6782V33.3382C34.5948 33.5021 34.5625 33.6643 34.4997 33.8157C34.437 33.9671 34.345 34.1046 34.2291 34.2203C34.1131 34.3361 33.9755 34.4279 33.8241 34.4905C33.6726 34.553 33.5103 34.5851 33.3465 34.5849H31.9515C26.0798 34.5849 19.4181 32.6249 13.8848 29.6682C8.40813 26.7416 3.7348 22.6682 2.2348 18.2282C2.17988 18.0654 2.15922 17.8929 2.17414 17.7217C2.18905 17.5504 2.23921 17.3841 2.32147 17.2332C2.88813 16.1932 3.49813 15.2249 4.13313 14.3249C4.42313 13.9149 4.93313 13.3666 5.3598 12.9166L5.6698 12.5916C5.94489 12.3089 6.21222 12.0188 6.47147 11.7216C7.02813 11.1049 7.8048 10.3216 8.7248 9.49323C9.91147 8.42323 11.3581 7.2599 12.8915 6.2949C14.4081 5.3399 16.0881 4.52823 17.7315 4.2449L17.7331 4.24656ZM25.7615 23.6632C25.0201 22.674 24.3623 21.6248 23.7948 20.5266C23.1648 19.3032 22.6048 17.9316 22.3781 16.6566L20.2548 15.6732L22.8765 22.2816C22.9965 22.584 22.9935 22.9213 22.8681 23.2216L21.7481 25.8999L23.7715 26.6466L25.7615 23.6632ZM26.2481 27.4299C28.3515 28.0349 29.4615 28.3466 32.1015 28.6966V28.6782C32.1015 27.8882 31.6548 27.1649 30.9481 26.8116L27.7315 25.2032L26.2481 27.4282V27.4299ZM32.1015 31.2132C28.9848 30.8132 27.7548 30.4582 25.4348 29.7882C24.9003 29.6325 24.3653 29.4786 23.8298 29.3266L19.6631 27.7866C19.6281 27.7737 19.5936 27.7592 19.5598 27.7432C16.0981 26.0932 14.1598 24.8782 11.7548 23.1182C8.8248 20.9766 6.64647 18.8832 5.22813 17.1949C5.07813 17.4366 4.93147 17.6832 4.78813 17.9349C6.1698 21.3016 10.0098 24.7682 15.0631 27.4682C20.3131 30.2766 26.5748 32.0916 31.9531 32.0916H32.1015V31.2132ZM6.73647 15.0966C7.7298 16.3649 9.35313 18.0532 11.6281 19.8816L12.3365 15.9882L9.4198 12.2616C8.99313 12.6766 8.62813 13.0566 8.33647 13.3782C8.1198 13.6349 7.77147 14.0016 7.43313 14.3566L7.17313 14.6299C7.01647 14.7966 6.86813 14.9532 6.73647 15.0966V15.0966ZM11.2715 10.5832L14.6448 14.8916C14.7533 15.0302 14.8313 15.1902 14.8735 15.3612C14.9158 15.5321 14.9213 15.71 14.8898 15.8832L13.8565 21.5616C15.6249 22.8367 17.4983 23.9596 19.4565 24.9182L20.3715 22.7282L16.7848 13.6882C16.693 13.4565 16.6729 13.2025 16.7269 12.9591C16.7809 12.7158 16.9067 12.4942 17.0879 12.323C17.2691 12.1519 17.4975 12.039 17.7435 11.9989C17.9896 11.9588 18.242 11.9934 18.4681 12.0982L23.0398 14.2149L23.5831 13.3182C24.3752 12.0129 25.4677 10.9157 26.7698 10.1182L17.8365 6.76823C16.7331 7.01823 15.4915 7.6049 14.2198 8.4049C13.1881 9.0549 12.1815 9.81823 11.2715 10.5832V10.5832Z" fill="black"/>
</svg>
