<svg width="40" height="40" viewBox="0 0 40 40" fill="none" xmlns="http://www.w3.org/2000/svg">
<path d="M17.5002 36.6666C16.7779 36.6666 16.1179 36.4516 15.5202 36.0216C14.9235 35.5905 14.5141 35.0138 14.2918 34.2916L12.7502 29.0833C11.4168 28.0277 10.3474 26.7083 9.54183 25.1249C8.73627 23.5416 8.3335 21.8333 8.3335 19.9999C8.3335 18.1666 8.73627 16.4583 9.54183 14.8749C10.3474 13.2916 11.4168 11.9721 12.7502 10.9166L14.2918 5.70825C14.5141 4.98603 14.9235 4.40936 15.5202 3.97825C16.1179 3.54825 16.7779 3.33325 17.5002 3.33325H22.5002C23.2224 3.33325 23.8824 3.54825 24.4802 3.97825C25.0768 4.40936 25.4863 4.98603 25.7085 5.70825L27.2502 10.9166C28.5835 11.9721 29.6529 13.2916 30.4585 14.8749C31.2641 16.4583 31.6668 18.1666 31.6668 19.9999C31.6668 21.8333 31.2641 23.5416 30.4585 25.1249C29.6529 26.7083 28.5835 28.0277 27.2502 29.0833L25.7085 34.2916C25.4863 35.0138 25.0768 35.5905 24.4802 36.0216C23.8824 36.4516 23.2224 36.6666 22.5002 36.6666H17.5002ZM20.0002 28.3333C22.3057 28.3333 24.2713 27.5205 25.8968 25.8949C27.5213 24.2705 28.3335 22.3055 28.3335 19.9999C28.3335 17.6944 27.5213 15.7288 25.8968 14.1033C24.2713 12.4788 22.3057 11.6666 20.0002 11.6666C17.6946 11.6666 15.7296 12.4788 14.1052 14.1033C12.4796 15.7288 11.6668 17.6944 11.6668 19.9999C11.6668 22.3055 12.4796 24.2705 14.1052 25.8949C15.7296 27.5205 17.6946 28.3333 20.0002 28.3333ZM16.8335 8.74992C17.9168 8.44436 18.9724 8.29159 20.0002 8.29159C21.0279 8.29159 22.0835 8.44436 23.1668 8.74992L22.5002 6.66659H17.5002L16.8335 8.74992ZM17.5002 33.3333H22.5002L23.1668 31.2499C22.0835 31.5555 21.0279 31.7083 20.0002 31.7083C18.9724 31.7083 17.9168 31.5555 16.8335 31.2499L17.5002 33.3333ZM16.8335 6.66659H23.1668H16.8335V6.66659ZM17.5002 33.3333H16.8335H23.1668H22.5002H17.5002Z" fill="black"/>
</svg>
